<svg xmlns="http://www.w3.org/2000/svg" viewBox="0 0 24 24" id="write"><path d="m7.11 11.52-.71 4.94c-.074.59.29 1.14 1.14 1.14l4.94-.71a.996.996 0 0 0 .57-.28c.079-.079 7.83-7.823 7.9-7.91 3.442-3.802-1.975-8.989-5.65-5.65-.087.07-7.832 7.822-7.91 7.9a.996.996 0 0 0-.28.57ZM18 4.02A1.974 1.974 0 0 1 20 6a1.932 1.932 0 0 1-.4 1.18L16.82 4.4A1.935 1.935 0 0 1 18 4.02Zm-8.96 8.11 6.34-6.33 2.82 2.82-6.33 6.34-3.3.47Z"></path><path d="M19 13.125V17a3.003 3.003 0 0 1-3 3H7a3.003 3.003 0 0 1-3-3V8a3.003 3.003 0 0 1 3-3h3.969a1 1 0 0 0 0-2H7a5.006 5.006 0 0 0-5 5v9a5.006 5.006 0 0 0 5 5h9a5.006 5.006 0 0 0 5-5v-3.875a1 1 0 0 0-2 0Z"></path></svg>